<?xml version="1.0" encoding="UTF-8"?>
<!-- Generator: Adobe Illustrator 26.0.1, SVG Export Plug-In . SVG Version: 6.00 Build 0)  -->
<svg version="1.1" id="Layer_1" xmlns="http://www.w3.org/2000/svg" xmlns:xlink="http://www.w3.org/1999/xlink" x="0px" y="0px" viewBox="0 0 86 108" style="enable-background:new 0 0 86 108;" xml:space="preserve">
<style type="text/css">
	.st0{fill:#059948;}
	.st1{fill:#FFFFFF;}
</style>
<path class="st0" d="M83.21,42.5c0,22.09-17.91,40-40,40c-22.09,0-40-17.91-40-40c0-22.09,17.91-40,40-40  C65.29,2.5,83.21,20.41,83.21,42.5"/>
<g>
	<path class="st1" d="M20.91,24.78l-9.37,0.2C8.18,30.2,7.32,38.3,7.32,38.3c2.87-0.09,14.12-3.86,14.12-3.86   C24.85,29.28,20.91,24.78,20.91,24.78z"/>
	<path class="st1" d="M36.33,18.75c3.14,0.82,3.44,0.14,3.44,0.14s0.58-0.5,2.75-2.22c1.85-1.41,1.19-2.36,1.19-2.36   s-0.92-3.97-1.76-6.11c-0.84-1.95-4.09-1.54-4.09-1.54C31.34,7.96,28,10.15,28,10.15c-8.59,4.5-12.46,10.77-12.46,10.77l6.51,0.01   C27.09,16.71,36.33,18.75,36.33,18.75z"/>
	<path class="st1" d="M65.01,36.76c1.38,3.99,3.85,6.94,3.85,6.94l1.28,0.09c4.99,0,9.24-2.45,9.24-2.45   C78.63,21.1,63.29,12.1,63.29,12.1l-0.14,5.06C69.95,27.34,65.01,36.76,65.01,36.76z"/>
	<path class="st1" d="M47.34,67.33l-3.01,2.82c0.44,3.22,2.07,8.53,2.07,8.53c16.44-1.01,25.26-13.61,25.26-13.61l-5.22-0.19   C60.9,70.46,47.34,67.33,47.34,67.33z"/>
	<path class="st1" d="M22.29,46.96l-5.54-6.65l-9.73,3.1c0,0-0.52,19.23,17.36,30.3l-0.2-8.96C24.18,64.75,20.53,59.91,22.29,46.96z   "/>
	<path class="st1" d="M34.43,63.11c0,0-3.32,0.04-4.38,2.18l-0.08,10.54c0,0,4.22,2.42,11.68,2.8c0,0-0.06-3.82-2.66-13.12   C38.98,65.52,38.05,62.57,34.43,63.11z"/>
	<path class="st1" d="M40.51,46.58c0.68-0.28,4.77,0.29,4.77,0.29l0.78-0.48c1.79-2.04,1.92-4.24,2.37-5.6c0.5-0.7,0-1.07,0-1.07   l-6.03-2.15c0,0-1.17-0.59-1.95,1.49c-2.05,4.36-1.37,6.58-1.37,6.58C39.23,46.6,40.51,46.58,40.51,46.58z"/>
	<path class="st1" d="M64,48.75c-4.24,5.96-0.11,10.92-0.11,10.92l11.41-0.21c2.61-4.01,3.79-12.36,3.79-12.36   C77.17,46.86,64,48.75,64,48.75z"/>
	<path class="st1" d="M58.82,20.21c0,0,1-2.93,0.15-10.58c0,0-4.72-2.8-11.98-3.31c0,0,0.26,3.78,1.6,9.98   C49.79,25.8,57.81,21.71,58.82,20.21z"/>
	<path class="st1" d="M41.37,33.36c0.36,2.42,1.92,2.02,1.92,2.02c3.66-0.27,7.87,2.42,7.87,2.42c1.38-0.12,10.42-1.13,10.42-1.13   c2.45-1.37,0.57-2.99,0.57-2.99l-0.93-0.2l-0.73-0.28l0.02-0.29l0.73-0.12h1.04c2.04-1.24,0.46-2.79,0.46-2.79h-2.1l-0.51-0.43   l0.02-0.18l0.84-0.5h1.26c2.48-1.18,0.2-2.74,0.2-2.74h-1.41v-0.95h1.45l0.8-0.77c0.31-0.73-0.57-2.09-0.57-2.09   c-1.33-1.5-2.7-0.45-2.7-0.45c-1.1,1.54-1.86,1.63-1.86,1.63c-3.89,1.45-6.93,0.53-6.93,0.53c-4.13-1.52-4.36-5.32-4.36-5.32h-0.82   l-5.36,5.38L41.37,33.36z M54.81,35.44c0,0-1.45-0.04-0.94-1.06c0,0,0.2-0.74,0.92-0.69c0,0,0.88,0.18,1.02,0.77   C55.81,34.46,55.84,35.66,54.81,35.44z M55.78,32.66l-0.51,0.26l-1.38,0.03l-0.49-0.07l0.02-1.29l0.2-0.25h1.94l0.48,0.78   L55.78,32.66z M53.28,30.35v-1.38l1.99-0.01l0.72,0.42v0.58l-0.84,0.5L53.28,30.35z M53.25,25.88l0.95-0.18l1.36-0.07L56,26.51   l-0.48,0.99l-1.33-0.06l-1.13-0.43l-0.13-0.57L53.25,25.88z"/>
	<path class="st1" d="M22,38.03c-0.64,0.02,1.53,2.76,2.28,3.49l3.51,4.67l8.35-1.22c0,0,1.72-7.99,2.87-8.8l0.17-12.43   c0,0-1.28-3.77-3.14-0.09c0,0-0.02,2.61-0.97-0.25c-0.95-2.86-2.25-1.36-2.23-0.64l-0.07,1.47c0,0-0.99,0.82-1.06-0.23   c-0.07-1.04-0.18-1.97-1.53-2.11c0,0-1.11-0.18-1.06,1.45c0.04,1.64-0.84,1.52-1.06,0.18c-0.22-1.34-1.4-1.56-2.3-1.18   c-0.91,0.39-1.39,1.38-0.31,4.01c1.08,2.63,1.04,5.53,0.47,7.42C25.36,35.67,24.13,37.1,22,38.03z M36.98,28.48l0.18-0.15   l0.22-0.05l0.24,0.07l0.29,0.27c0,0,0.09,0.51,0.14,0.95c0.05,0.42,0.07,0.64-0.16,0.73c-0.22,0.09-0.8,0.37-0.94-0.33   C36.82,29.27,36.98,28.48,36.98,28.48z M34.52,28.43l0.27-0.27l0.44-0.02l0.47,0.06l0.25,0.23v2.4h-1.09l-0.27-0.11l-0.06-0.36   V28.43z M31.21,28.76l0.41-0.18l0.26-0.02l0.28-0.03l0.23,0.05l0.32,0.09l0.23,0.17l0.04,0.2v1.77h-1.78V28.76z M28.9,28.65   l0.71,0.21l0.09,0.34v1.72h-1.27l-0.24-0.08l-0.12-0.15l0-1.82L28.9,28.65z"/>
	<path class="st1" d="M41.1,64.17l5.33-4.14l-1.14-8.81c0,0,0.2-1.26-1.12-1.83c-3.06,0.24-3.6-0.08-3.6-0.08s-1.59-0.25-3.54-2   c0,0-3.77-0.57-8.96,0.25c-2.71,1.26-1.91,3.51-0.77,3.64h1.14v0.68h-0.9c0,0-1.64,1.06-0.36,2.33h1.59c0,0,0.91,0.39-0.29,0.88   c-1.21,0.08-2.3,1.38-0.33,2.46c0,0,0.84,0.08,0.91,0.29c0,0,0.28,0.43-0.42,0.59c0,0-1.95,0.78-0.84,2.4c0,0,0.75,1.48,2.01,0.58   C29.83,61.4,37.34,56.7,41.1,64.17z M34.83,48.8c0.94,0.2,0.4,1.15,0.4,1.15l-1.02,0.16c-0.43-0.26-0.53-0.44-0.53-0.44   S33.61,48.69,34.83,48.8z M34.46,52.08c0,0,0.57-0.24,1.12,0.04c0,0,1.04,0.74-0.26,1.29c0,0-0.65,0.31-1.5-0.55   C33.81,52.86,33.48,52.34,34.46,52.08z M34.81,54.26l1.03,0.05c0,0,1.61,1.07-0.59,1.46l-1.02-0.08v-1.05   C34.24,54.64,34.21,54.23,34.81,54.26z M34.56,57.62c-0.44-0.66,0.67-0.92,1-0.89c0,0,0.78,0.14,0.82,0.76   c0.04,0.63-0.62,0.73-0.7,0.73C35.59,58.22,35,58.28,34.56,57.62z"/>
	<path class="st1" d="M55.73,61.91c0,0,0.2,0.61,0.22,1.61c0.31,0.93,1.42,0.97,1.42,0.97c0.86,0.02,0.95-0.97,0.95-0.97l0.13-2.04   l0.4,0.05l0.91,1.82c1.23,1.59,3.05-0.52,3.05-0.52v-1.7c-7.34-8.94,1.28-14.55,1.28-14.55c0.24,0.34,1.36,0.24,1.36,0.24   l0.03-0.42l-6.6-7.74c-3.42-0.54-6.78,1.15-6.78,1.15c0.03,0.36-4.92,10.49-4.92,10.49c1.18,6.47,0.65,12.03,0.65,12.03   c0.5,1.41,2.41,1.8,2.41,1.8s0.5-0.2,0.9-0.87c0.17-0.63,0.3-1.44,0.78-1.29c0.48,0.14,0.28,1.37,0.28,1.37s-0.03,0.29,0.46,0.72   c1.14,0.67,1.81-0.14,1.81-0.14c0.97-1.11,0.31-1.14,0.66-1.95C55.47,61.14,55.73,61.91,55.73,61.91z M58.08,53.71   c0.84-0.42,1.42,0.62,1.42,1.27c0,0-0.77,1.61-1.95,0.23C57.55,55.2,57.24,54.14,58.08,53.71z M50.35,56.79   c0,0-0.31,0.32-0.77,0.32c0,0-0.93,0.17-0.81-1.34c0,0,0.49-1.42,1.6-0.05L50.35,56.79z M53.13,56.22c0,0-0.65,1.51-1.74,0.1   l-0.23-0.79l0.23-0.64c0,0,0.74-0.69,1.08-0.32C52.48,54.56,53.44,55.1,53.13,56.22z M54.09,55.87l-0.17-0.83l0.17-0.8   c0,0,0.92-1.02,1.62,0.22c0,0,0.7,0.72-0.56,1.88C54.43,56.79,54.09,55.87,54.09,55.87z"/>
</g>
<g>
	<path class="st0" d="M26.95,98.49c0,0.83-0.16,1.56-0.47,2.19s-0.74,1.15-1.27,1.56c-0.63,0.49-1.32,0.84-2.07,1.05   c-0.75,0.21-1.71,0.31-2.86,0.31h-6.68V86.91h5.9c1.23,0,2.15,0.05,2.79,0.14c0.63,0.09,1.22,0.29,1.78,0.59   c0.6,0.32,1.04,0.75,1.34,1.29c0.29,0.54,0.44,1.16,0.44,1.86c0,0.81-0.2,1.54-0.61,2.17c-0.41,0.64-0.97,1.1-1.69,1.4v0.09   c1.03,0.22,1.86,0.66,2.48,1.33C26.63,96.45,26.95,97.36,26.95,98.49z M21.57,91.63c0-0.27-0.07-0.55-0.21-0.83   c-0.14-0.28-0.35-0.49-0.65-0.62c-0.28-0.12-0.6-0.18-0.98-0.2c-0.38-0.01-0.94-0.02-1.69-0.02h-0.29v3.53h0.53   c0.72,0,1.22-0.01,1.51-0.02c0.29-0.01,0.58-0.09,0.89-0.24c0.34-0.16,0.57-0.37,0.69-0.65S21.57,92,21.57,91.63z M22.63,98.41   c0-0.52-0.1-0.92-0.31-1.21c-0.21-0.29-0.52-0.51-0.94-0.66c-0.25-0.1-0.6-0.15-1.05-0.16c-0.44-0.01-1.04-0.02-1.79-0.02h-0.77   v4.18h0.22c1.09,0,1.85-0.01,2.26-0.02c0.42-0.01,0.84-0.12,1.28-0.3c0.38-0.16,0.66-0.41,0.83-0.72   C22.54,99.18,22.63,98.82,22.63,98.41z"/>
	<path class="st0" d="M42.19,92.18c0,0.78-0.12,1.52-0.37,2.22c-0.25,0.7-0.6,1.29-1.06,1.76c-0.28,0.29-0.6,0.56-0.94,0.81   c-0.34,0.25-0.72,0.46-1.13,0.63s-0.86,0.31-1.34,0.4c-0.48,0.1-1.02,0.15-1.62,0.15h-2.2v5.46h-4.19V86.91h6.48   c0.96,0,1.8,0.09,2.49,0.26s1.33,0.45,1.9,0.83c0.63,0.42,1.11,0.98,1.46,1.68C42.02,90.39,42.19,91.22,42.19,92.18z M37.89,92.28   c0-0.47-0.11-0.88-0.34-1.22c-0.22-0.34-0.49-0.57-0.81-0.7c-0.4-0.17-0.78-0.27-1.14-0.3s-0.85-0.04-1.47-0.04h-0.59v5h0.29   c0.4,0,0.77,0,1.12-0.01c0.35-0.01,0.66-0.03,0.92-0.08c0.22-0.04,0.46-0.11,0.71-0.22c0.25-0.11,0.44-0.23,0.58-0.37   c0.28-0.28,0.48-0.56,0.58-0.86C37.84,93.19,37.89,92.79,37.89,92.28z"/>
	<path class="st0" d="M59.06,103.6H54l-4.55-6.78l-0.82,1.14v5.64h-4.19V86.91h4.19v7.41l5.34-7.41h4.85l-5.95,7.75L59.06,103.6z"/>
	<path class="st0" d="M65.57,103.91c-1.28,0-2.4-0.12-3.37-0.37c-0.97-0.25-1.87-0.55-2.7-0.92v-3.97h0.38   c0.84,0.71,1.76,1.26,2.77,1.64s1.99,0.57,2.94,0.57c0.24,0,0.56-0.03,0.95-0.08c0.39-0.05,0.71-0.13,0.95-0.25   c0.29-0.13,0.54-0.3,0.74-0.53c0.2-0.23,0.3-0.53,0.3-0.9c0-0.42-0.17-0.76-0.49-1.02c-0.33-0.26-0.72-0.45-1.18-0.57   c-0.57-0.15-1.17-0.29-1.82-0.43s-1.25-0.3-1.81-0.49c-1.29-0.46-2.22-1.07-2.78-1.84c-0.56-0.77-0.84-1.73-0.84-2.89   c0-1.56,0.66-2.83,1.98-3.79c1.32-0.97,2.97-1.45,4.96-1.45c0.99,0,1.98,0.1,2.96,0.3c0.98,0.2,1.86,0.47,2.64,0.82v3.81h-0.37   c-0.62-0.53-1.38-0.98-2.27-1.34c-0.89-0.37-1.81-0.55-2.75-0.55c-0.37,0-0.7,0.03-0.99,0.08c-0.29,0.05-0.6,0.15-0.92,0.3   c-0.26,0.12-0.49,0.3-0.68,0.53c-0.19,0.24-0.29,0.5-0.29,0.79c0,0.43,0.15,0.76,0.45,1.01s0.89,0.48,1.75,0.68   c0.56,0.13,1.1,0.25,1.62,0.37c0.52,0.12,1.07,0.28,1.66,0.49c1.16,0.42,2.02,0.98,2.58,1.69s0.85,1.64,0.85,2.8   c0,1.66-0.65,2.99-1.96,4C69.56,103.4,67.79,103.91,65.57,103.91z"/>
</g>
</svg>